<?xml version="1.0" standalone="no"?>
<!DOCTYPE svg PUBLIC "-//W3C//DTD SVG 20010904//EN"
 "http://www.w3.org/TR/2001/REC-SVG-20010904/DTD/svg10.dtd">
<svg version="1.0" xmlns="http://www.w3.org/2000/svg"
 width="1280.000000pt" height="640.000000pt" viewBox="0 0 1280.000000 640.000000"
 preserveAspectRatio="xMidYMid meet">
<g transform="translate(0.000000,640.000000) scale(0.100000,-0.100000)"
fill="#00bcd4" stroke="none">
<path d="M6436 4915 c-9 -9 -17 -17 -18 -18 -2 -1 -5 -308 -8 -682 l-5 -680
-22 -3 c-13 -2 -69 24 -139 64 -77 44 -129 68 -149 68 -40 0 -910 -499 -940
-539 -19 -26 -20 -42 -20 -550 0 -515 0 -524 21 -552 13 -18 183 -122 465
-286 393 -228 448 -257 479 -254 43 5 882 485 923 528 l27 29 0 1273 c0 1190
-2 1273 -18 1294 -16 20 -525 310 -562 320 -9 3 -24 -3 -34 -12z m-184 -2064
l153 -89 0 -188 0 -189 -150 -87 c-82 -48 -155 -88 -162 -88 -6 0 -80 40 -165
89 l-153 89 -3 180 c-2 157 0 181 14 193 21 18 297 179 306 179 4 0 76 -40
160 -89z"/>
<path d="M11130 3677 c-119 -64 -817 -471 -834 -485 -52 -47 -51 -38 -51 -593
l0 -515 26 -40 c20 -29 57 -57 152 -111 164 -95 215 -115 299 -115 112 0 202
59 227 149 7 24 11 221 11 541 l0 502 -69 0 c-54 0 -70 -4 -75 -16 -3 -9 -6
-231 -6 -493 l0 -478 -25 -25 c-55 -55 -114 -44 -280 54 l-110 64 -3 482 -2
482 37 24 c99 63 780 450 793 450 13 0 694 -387 793 -450 l37 -24 -2 -482 -3
-482 -413 -238 -412 -239 -111 66 c-61 36 -114 65 -119 65 -4 0 -40 -15 -79
-33 -86 -39 -92 -31 84 -134 237 -139 207 -140 486 20 643 369 661 380 688
421 l26 40 0 517 0 517 -30 42 c-26 36 -89 77 -455 288 -392 227 -429 246
-480 250 -44 3 -64 -1 -100 -21z"/>
<path d="M485 3435 c-242 -140 -450 -266 -462 -280 l-23 -26 0 -685 c0 -453 4
-692 10 -705 7 -12 21 -19 38 -19 31 0 520 275 562 316 l25 24 5 354 c5 326 6
356 23 374 35 38 262 162 297 162 34 0 263 -125 297 -162 16 -18 18 -50 23
-374 l5 -354 25 -24 c40 -40 531 -316 562 -316 17 0 31 8 38 20 7 13 10 239 8
709 l-3 691 -25 24 c-14 13 -222 137 -462 275 -336 193 -445 251 -470 250 -24
0 -148 -66 -473 -254z"/>
<path d="M3059 3430 c-238 -138 -446 -264 -461 -280 l-28 -30 0 -530 0 -529
23 -25 c12 -15 218 -139 457 -278 395 -229 439 -252 480 -252 40 0 89 26 485
256 318 185 445 264 458 284 16 27 17 68 15 556 l-3 528 -25 24 c-14 13 -221
137 -460 275 -345 199 -442 251 -471 251 -28 0 -125 -52 -470 -250z"/>
<path d="M8620 3673 c-52 -21 -871 -501 -895 -524 l-30 -29 -3 -518 c-2 -478
-1 -520 15 -552 16 -31 71 -65 462 -289 313 -178 453 -253 476 -254 24 -1 104
39 309 152 224 124 277 158 282 178 4 16 1 30 -10 41 -9 10 -213 130 -454 268
l-437 252 -3 182 c-2 121 1 187 8 196 14 16 292 174 308 174 19 0 276 -151
300 -177 21 -23 22 -33 22 -162 0 -144 5 -161 45 -161 25 0 529 291 565 326
24 23 25 30 28 170 4 172 -2 192 -67 233 -171 108 -852 494 -876 497 -16 2
-37 1 -45 -3z"/>
<path d="M12420 3671 c0 -6 15 -11 33 -13 l32 -3 3 -87 c1 -49 7 -88 12 -88 5
0 11 39 12 88 l3 87 33 3 c64 6 30 22 -48 22 -44 0 -80 -4 -80 -9z"/>
<path d="M12610 3580 c0 -118 18 -136 22 -22 l3 77 26 -75 c34 -100 50 -102
82 -8 l25 73 1 -72 c1 -58 4 -73 16 -73 12 0 15 18 15 100 0 92 -2 100 -19
100 -15 0 -25 -17 -46 -81 -15 -44 -30 -77 -34 -72 -4 4 -18 41 -32 81 -17 53
-28 72 -41 72 -16 0 -18 -11 -18 -100z"/>
<path d="M11352 3029 c-179 -21 -284 -117 -281 -260 1 -60 18 -104 58 -144 45
-46 117 -71 258 -90 276 -38 316 -53 321 -122 7 -89 -71 -128 -248 -127 -170
1 -226 27 -258 119 l-18 50 -69 0 c-65 0 -70 -2 -73 -23 -6 -42 28 -132 65
-173 64 -71 155 -105 308 -115 172 -12 319 30 394 111 85 92 81 252 -7 327
-46 38 -136 64 -319 93 -222 34 -253 48 -253 112 0 75 75 107 240 101 133 -4
170 -23 206 -105 l24 -54 68 3 67 3 -3 44 c-6 98 -73 185 -168 221 -49 18 -77
23 -204 34 -19 2 -68 -1 -108 -5z"/>
<path d="M8553 2749 l-83 -50 0 -108 0 -109 91 -51 90 -52 90 52 90 51 -3 111
-3 111 -83 48 c-46 26 -89 48 -95 47 -7 0 -49 -23 -94 -50z"/>
</g>
</svg>
